<?xml version="1.0" encoding="utf-8"?>
<!-- Generator: Adobe Illustrator 18.1.1, SVG Export Plug-In . SVG Version: 6.00 Build 0)  -->
<svg version="1.1" id="Layer_1" xmlns="http://www.w3.org/2000/svg" xmlns:xlink="http://www.w3.org/1999/xlink" x="0px" y="0px"
	 viewBox="0 0 364.3 55.5" enable-background="new 0 0 364.3 55.5" xml:space="preserve">
<path fill="#00C78B" d="M364.3,39V12.8l-0.6-0.6h-4.9l-0.6,0.6v2.6h-0.6c0,0-2.4-3.8-7.9-3.8c-8.5,0-13.4,6.7-13.4,15.9
	c0,9.2,4.9,15.9,13.4,15.9c5.5,0,7.9-3.8,7.9-3.8h0.6v0.4c-0.1,6.5-2.5,10.1-7.9,10.1c-3,0-4.9-0.6-6.1-3l-0.6-0.6h-4.9L338,47
	c0.6,4.9,4.9,8.5,12.2,8.5C357.5,55.5,364.3,51.2,364.3,39 M358.2,27.5c0,7.3-3.1,10.4-7.9,10.4c-4.9,0-7.9-3.7-7.9-10.4
	c0-6.7,3.1-10.4,7.9-10.4C355.1,17.1,358.2,20.1,358.2,27.5 M331.6,42.7l0.6-0.6V24.4c0-7.3-3-12.8-11.6-12.8
	c-5.5,0-7.9,3.8-7.9,3.8h-0.6v-2.6l-0.6-0.6h-5.2l-0.6,0.6v29.3l0.6,0.6h5.2l0.6-0.6V27.5c0-7.3,2.4-10.4,7.9-10.4
	c5.5,0,6.1,4.3,6.1,7.3v17.7l0.6,0.6H331.6z M298.7,42.7l0.6-0.6V12.8l-0.6-0.6h-4.9l-0.6,0.6v29.3l0.6,0.6H298.7z M298.7,7.3
	l0.6-0.6V1.8l-0.6-0.6h-4.9l-0.6,0.6v4.9l0.6,0.6H298.7z M270.8,20.1c0-2.4,2.4-3.1,5.5-3.1c4.3,0,5.5,1.8,5.5,3.7l0.6,0.6h4.9
	l0.6-0.6c0-6.1-4.9-9.1-11.6-9.1c-8.5,0-11.6,4.3-11.6,8.5c0,5.5,3.7,7.9,9.8,9.2c6.1,1.2,7.9,1.8,7.9,4.9c0,2.4-1.8,3.7-6.1,3.7
	c-4.3,0-6.1-1.8-6.1-4.9l-0.6-0.6h-4.9l-0.6,0.6c0,6.7,4.3,10.4,12.2,10.4c8.5,0,12.2-4.3,12.2-9.2c0-5.5-3-7.9-9.2-9.2
	C273.2,23.8,270.8,23.2,270.8,20.1 M243.1,20.1c0-2.4,2.4-3.1,5.5-3.1c4.3,0,5.5,1.8,5.5,3.7l0.6,0.6h4.9l0.6-0.6
	c0-6.1-4.9-9.1-11.6-9.1c-8.5,0-11.6,4.3-11.6,8.5c0,5.5,3.7,7.9,9.8,9.2c6.1,1.2,7.9,1.8,7.9,4.9c0,2.4-1.8,3.7-6.1,3.7
	c-4.3,0-6.1-1.8-6.1-4.9l-0.6-0.6H237l-0.6,0.6c0,6.7,4.3,10.4,12.2,10.4c8.5,0,12.2-4.3,12.2-9.2c0-5.5-3.1-7.9-9.2-9.2
	C245.5,23.8,243.1,23.2,243.1,20.1 M232.4,29.9l0.6-0.6v-1.8c0-8.5-4.3-15.9-14-15.9c-9.8,0-14,7.3-14,15.9
	c0,9.2,4.9,15.9,14.6,15.9c7.3,0,11.6-4.3,12.2-9.2l-0.6-0.6h-4.9l-0.6,0.6c-1.2,3.1-3.7,3.7-6.1,3.7c-7.3,0-7.9-6.1-7.9-7.3
	l0.6-0.6H232.4z M226.3,24.4l-0.6,0.6h-13.4l-0.6-0.6c0-1.8,0.6-7.3,7.3-7.3C225.7,17.1,226.3,22.6,226.3,24.4 M194.9,42.1l9.8-37.2
	V0.6L204,0h-3.7l-0.6,0.6l-7.9,31.1h-0.6l-9.2-31.1L181.4,0H176l-0.6,0.6l-9.2,31.1h-0.6l-7.9-31.1L157,0h-3.7l-0.6,0.6v4.3
	l9.8,37.2l0.6,0.6h5.5l0.6-0.6l9.2-32.3h0.6l9.2,32.3l0.6,0.6h5.5L194.9,42.1z M149.7,17.7l0.6-0.6v-4.3l-0.6-0.6h-2.4
	c-4.3,0-6.1,1.4-7.9,3.2h-0.6v-2.6l-0.6-0.6h-4.9l-0.6,0.6v29.3l0.6,0.6h4.9l0.6-0.6V26.8c0-7.3,3.1-9.2,7.9-9.2H149.7z M128.3,27.5
	c0-9.8-5.5-15.9-14.6-15.9c-9.2,0-14.6,6.1-14.6,15.9c0,9.8,5.5,15.9,14.6,15.9C122.8,43.3,128.3,37.2,128.3,27.5 M122.2,27.5
	c0,6.7-3.1,10.4-8.5,10.4c-5.5,0-8.5-3.7-8.5-10.4c0-6.7,3.1-10.4,8.5-10.4C119.2,17.1,122.2,20.7,122.2,27.5 M94.2,42.7l0.6-0.6
	V0.6L94.2,0h-4.9l-0.6,0.6v41.5l0.6,0.6H94.2z M74,43l10.4-25.9v-4.3l-0.6-0.6h-3.7l-0.6,0.6l-8.5,22.6h-0.6l-8.5-22.6l-0.6-0.6
	h-3.7l-0.6,0.6v4.3l10.4,25.6v0.6c0,0,0,0,0,0h0l-0.6,1.5c-1.2,3.1-3.1,3.7-6.1,3.7h-1.2l-0.6,0.6v4.3l0.6,0.6h1.2
	C67.9,54,70.3,52.2,74,43 M53.3,42.7l0.6-0.6V25c0-9.2-3.1-13.4-12.2-13.4c-9.2,0-12.2,4.9-12.2,9.1l0.6,0.6H35l0.6-0.6
	c0-2.4,1.8-3.7,6.1-3.7c4.3,0,6.1,1.2,6.1,5.5v1.2l-0.6,0.6c0,0-2.4-0.6-5.5-0.6c-7.9,0-13.4,3.1-13.4,9.8c0,6.1,3.7,9.8,10.4,9.8
	c6.1,0,8.5-3.8,8.5-3.8h0.6v2.6l0.6,0.6H53.3z M47.8,31.7c0,3.7-3.1,6.1-7.9,6.1c-3.7,0-5.5-1.2-5.5-4.3c0-3,2.4-4.9,7.9-4.9
	c3.1,0,4.9,0.6,4.9,0.6l0.6,0.6V31.7z M33.6,5.5l0.6-0.6V0.6L33.6,0H0.6L0,0.6v4.3l0.6,0.6h12.8L14,6.1v36l0.6,0.6h4.9l0.6-0.6v-36
	l0.6-0.6H33.6z"/>
</svg>
